<?xml version="1.0" standalone="no"?>
<!DOCTYPE svg PUBLIC "-//W3C//DTD SVG 20010904//EN"
 "http://www.w3.org/TR/2001/REC-SVG-20010904/DTD/svg10.dtd">
<svg version="1.0" xmlns="http://www.w3.org/2000/svg"
 width="80.000000pt" height="60.000000pt" viewBox="0 0 80.000000 60.000000"
 preserveAspectRatio="xMidYMid meet">

<g transform="translate(0.000000,60.000000) scale(0.100000,-0.100000)"
fill="#000000" stroke="none">
<path d="M360 453 c-87 -84 -130 -133 -130 -147 0 -13 21 -42 50 -71 l49 -49
23 20 c36 30 38 37 19 59 -10 11 -21 26 -25 33 -10 16 135 162 160 162 19 0
154 -136 154 -155 0 -15 -143 -155 -159 -155 -8 0 -22 7 -31 15 -15 13 -19 12
-45 -15 l-29 -30 44 -45 c24 -25 51 -45 60 -45 17 0 280 259 280 275 0 15
-263 275 -278 275 -7 0 -71 -57 -142 -127z"/>
</g>
</svg>
